<svg width="40" height="40" viewBox="0 0 40 40" fill="none" xmlns="http://www.w3.org/2000/svg">
<circle cx="20" cy="20" r="19.5" fill="white" stroke="black"/>
<path d="M19.5123 11.9238C17.5308 11.9238 15.918 13.5128 15.918 15.4649C15.918 17.4171 17.5308 19.006 19.5123 19.006C21.4938 19.006 23.1067 17.4171 23.1067 15.4649C23.1067 13.5128 21.4938 11.9238 19.5123 11.9238ZM19.5123 17.9943C18.0967 17.9943 16.9449 16.8596 16.9449 15.4649C16.9449 14.0702 18.0967 12.9356 19.5123 12.9356C20.928 12.9356 22.0797 14.0702 22.0797 15.4649C22.0797 16.8596 20.928 17.9943 19.5123 17.9943Z" fill="black"/>
<path d="M26.41 8.65571C24.5672 6.84878 22.117 5.85352 19.511 5.85352C16.9045 5.85352 14.4547 6.84878 12.6119 8.65571C9.2016 11.9992 8.77779 18.2901 11.6941 22.1015L19.511 33.1706L27.3162 22.1169C30.2442 18.29 29.8204 11.9992 26.41 8.65571ZM26.4909 21.5338L19.511 31.4175L12.5199 21.5183C9.87471 18.0601 10.2538 12.3788 13.3319 9.36113C14.9823 7.74277 17.1767 6.85127 19.511 6.85127C21.8453 6.85127 24.0396 7.74277 25.6906 9.36113C28.7687 12.3788 29.1478 18.0601 26.4909 21.5338Z" fill="black"/>
</svg>
