<svg width="17" height="19" viewBox="0 0 17 19" fill="none" xmlns="http://www.w3.org/2000/svg">
<path d="M15.0607 12.1727L10.5022 16.4678C8.31152 18.5319 4.81826 18.5075 2.65849 16.413C0.447576 14.2689 0.447112 10.7923 2.65745 8.64763C2.66389 8.64138 2.67035 8.63515 2.67682 8.62893L9.50571 2.06676C10.9958 0.634905 13.4003 0.645867 14.8764 2.09125C14.8842 2.09881 14.8919 2.10641 14.8995 2.11404C16.3811 3.59013 16.3646 5.94713 14.8626 7.40365L7.97931 14.0784C7.26149 14.7745 6.11667 14.8296 5.33136 14.2059L5.21816 14.116C4.46069 13.5143 4.34943 12.431 4.96965 11.6962C5.00229 11.6576 5.03665 11.6203 5.07264 11.5845L9.7011 6.98477" stroke="#666666" stroke-linecap="round" stroke-linejoin="round"/>
</svg>
