<svg width="30" height="30" viewBox="0 0 30 30" fill="none" xmlns="http://www.w3.org/2000/svg">
<path d="M15 0C6.71625 0 0 6.71625 0 15C0 23.2838 6.71625 30 15 30C23.2838 30 30 23.2838 30 15C30 6.7144 23.2838 0 15 0ZM18.8775 14.9981L16.4194 14.9999L16.4175 23.9999H13.0444V15H10.7944V11.8987L13.0444 11.8969L13.0406 10.0706C13.0406 7.53941 13.7268 6.00004 16.7062 6.00004H19.1887V9.10315H17.6362C16.4756 9.10315 16.4194 9.53626 16.4194 10.3444L16.4156 11.8969H19.2056L18.8775 14.9981Z" fill="#0E0E0E" fill-opacity="0.2"/>
</svg>
