<svg width="20" height="20" viewBox="0 0 20 20" fill="none" xmlns="http://www.w3.org/2000/svg">
<path d="M10 0C4.48601 0 0 4.48601 0 10C0 15.514 4.48601 20 10 20C15.514 20 20 15.514 20 10C20 4.48601 15.5141 0 10 0ZM10 18.9189C7.55024 18.9189 5.32811 17.9259 3.71464 16.3216C3.07031 15.6809 2.52334 14.9425 2.09746 14.131C1.4488 12.8952 1.0811 11.4898 1.0811 10C1.0811 5.0821 5.0821 1.0811 10 1.0811C12.3327 1.0811 14.4586 1.98165 16.0496 3.45288C16.8745 4.2156 17.5556 5.13156 18.0468 6.15535C18.6056 7.32017 18.9189 8.62417 18.9189 10C18.9189 14.9179 14.9179 18.9189 10 18.9189Z" fill="#25C368"/>
<path d="M6.73344 8.85164C7.33051 8.85164 7.81454 8.36762 7.81454 7.77055C7.81454 7.17348 7.33051 6.68945 6.73344 6.68945C6.13637 6.68945 5.65234 7.17348 5.65234 7.77055C5.65234 8.36762 6.13637 8.85164 6.73344 8.85164Z" fill="#25C368"/>
<path d="M13.4209 8.85164C14.018 8.85164 14.502 8.36762 14.502 7.77055C14.502 7.17348 14.018 6.68945 13.4209 6.68945C12.8239 6.68945 12.3398 7.17348 12.3398 7.77055C12.3398 8.36762 12.8239 8.85164 13.4209 8.85164Z" fill="#25C368"/>
<path d="M9.97878 15.5397C12.0703 15.5397 14.0747 14.4701 15.2224 12.6942L14.3143 12.1074C13.2604 13.7382 11.3328 14.6483 9.40255 14.4256C7.89834 14.2521 6.50731 13.3855 5.68142 12.1074L4.77344 12.6942C5.77278 14.2408 7.45699 15.2894 9.27863 15.4996C9.51249 15.5265 9.746 15.5397 9.97878 15.5397Z" fill="#25C368"/>
</svg>
