<svg width="20" height="20" viewBox="0 0 20 20" fill="none" xmlns="http://www.w3.org/2000/svg">
<path d="M6.399 13.5968H13.5968V14.3956H6.399V13.5968ZM7.19782 7.19782C7.19782 6.75868 6.83814 6.399 6.399 6.399C5.95985 6.399 5.60017 6.75868 5.60017 7.19782C5.60017 7.63697 5.95985 7.99665 6.399 7.99665C6.83814 7.99665 7.19782 7.63697 7.19782 7.19782ZM13.5968 6.399C13.1577 6.399 12.798 6.75868 12.798 7.19782C12.798 7.63697 13.1577 7.99665 13.5968 7.99665C14.036 7.99665 14.3957 7.63697 14.3957 7.19782C14.3957 6.75868 14.036 6.399 13.5968 6.399ZM20 10C20 15.5207 15.5207 20 10 20C4.4793 20 0 15.5207 0 10C0 4.4793 4.4793 0 10 0C15.5165 0 20 4.4793 20 10ZM19.197 10C19.197 4.8808 15.1192 0.803011 10 0.803011C4.8808 0.803011 0.803011 4.8808 0.803011 10C0.803011 15.1192 4.8808 19.197 10 19.197C15.1192 19.197 19.197 15.1192 19.197 10Z" fill="#666666"/>
</svg>
