<svg width="20" height="20" viewBox="0 0 20 20" fill="none" xmlns="http://www.w3.org/2000/svg">
<path d="M14.4693 7.33802C14.4693 7.98443 13.9456 8.50839 13.2991 8.50839C12.6529 8.50839 12.1289 7.98443 12.1289 7.33802C12.1289 6.69162 12.6529 6.16797 13.2991 6.16797C13.9456 6.16797 14.4693 6.69162 14.4693 7.33802Z" fill="#EB5757"/>
<path d="M7.87168 7.33802C7.87168 7.98443 7.34763 8.50839 6.70146 8.50839C6.05529 8.50839 5.53125 7.98443 5.53125 7.33802C5.53125 6.69162 6.05529 6.16797 6.70146 6.16797C7.34763 6.16797 7.87168 6.69162 7.87168 7.33802Z" fill="#EB5757"/>
<path d="M6.00529 15.9584C5.74363 15.9584 5.53125 15.7428 5.53125 15.4765C5.53125 13.3959 7.17715 11.7031 9.20041 11.7031H10.7983C12.8215 11.7031 14.4674 13.3865 14.4674 15.4556C14.4674 15.7219 14.2554 15.9379 13.9934 15.9379C13.7317 15.9379 13.5197 15.7219 13.5197 15.4556C13.5197 13.9183 12.2988 12.6674 10.7983 12.6674H9.20044C7.6999 12.6674 6.4794 13.9273 6.4794 15.4764C6.47933 15.7428 6.26695 15.9584 6.00529 15.9584Z" fill="#EB5757"/>
<path d="M10.0002 20C4.48597 20 0 15.5139 0 9.99984C0 4.4861 4.48597 0 10.0002 0C15.514 0 20 4.4861 20 9.99984C20 15.5139 15.514 20 10.0002 20ZM10.0002 0.949774C5.00956 0.949774 0.949698 5.0096 0.949698 9.99984C0.949698 14.9904 5.0096 19.0502 10.0002 19.0502C14.9904 19.0502 19.0503 14.9904 19.0503 9.99984C19.0503 5.00956 14.9904 0.949774 10.0002 0.949774Z" fill="#EB5757"/>
</svg>
