<svg width="40" height="40" viewBox="0 0 40 40" fill="none" xmlns="http://www.w3.org/2000/svg">
<path d="M20 40C8.97212 40 0 31.0279 0 20C0 8.97212 8.97212 0 20 0C31.0279 0 40 8.97212 40 20C40 31.0279 31.0279 40 20 40ZM20 1.21212C9.64 1.21212 1.21212 9.64 1.21212 20C1.21212 30.36 9.64 38.7879 20 38.7879C30.36 38.7879 38.7879 30.36 38.7879 20C38.7879 9.64 30.36 1.21212 20 1.21212Z" fill="black"/>
<path d="M20.0018 39.9996C15.8421 39.9996 11.8446 38.7294 8.43815 36.3256C8.2565 36.1972 8.15963 35.9775 8.18869 35.7577C8.21775 35.538 8.36791 35.3507 8.57862 35.2739C13.5993 33.4309 14.4095 31.9348 14.4095 29.0677C14.4095 28.3101 14.2375 28.0615 13.9275 27.6101C13.517 27.017 12.9551 26.2041 12.5603 24.0814C12.5022 23.7764 12.4525 23.7524 12.1776 23.6203C11.4438 23.2697 10.7693 22.7654 10.5925 20.465C10.5925 19.3508 10.98 18.7349 11.3009 18.4143C11.2307 18.0181 11.1156 17.3349 11.0078 16.5905C10.4593 13.2563 10.4351 9.17284 15.1651 7.2746C19.2873 5.6177 22.5775 6.52299 23.6105 7.60238C24.3419 7.62519 26.2286 7.8149 27.5413 9.32892C29.5612 11.6582 28.9182 16.9687 28.6978 18.4083C29.0199 18.7216 29.4111 19.3292 29.4111 20.4194C29.2343 22.7654 28.5598 23.2709 27.8247 23.6203C27.5486 23.7524 27.4989 23.7752 27.442 24.0814C27.0472 26.2041 26.4866 27.017 26.076 27.6101C25.7648 28.0603 25.5941 28.3101 25.5941 29.0677C25.5941 31.9348 26.4042 33.4309 31.4249 35.2739C31.6356 35.3507 31.7858 35.5368 31.8149 35.7577C31.8439 35.9787 31.747 36.1972 31.5654 36.3256C28.1589 38.7294 24.1615 39.9996 20.0018 39.9996ZM10.0923 35.9787C13.0738 37.8277 16.4766 38.799 20.0018 38.799C23.5269 38.799 26.9298 37.8277 29.9112 35.9787C25.7043 34.2665 24.3831 32.54 24.3831 29.0689C24.3831 27.9391 24.7197 27.4504 25.077 26.9329C25.4451 26.3998 25.9029 25.7371 26.2528 23.864C26.4212 22.9588 26.9504 22.7066 27.3003 22.5397C27.677 22.3608 28.0645 22.1759 28.2013 20.3749C28.2001 19.4576 27.7847 19.2079 27.7678 19.1983C27.545 19.071 27.4008 18.8033 27.4481 18.5536C27.7484 16.9579 28.2425 11.9812 26.6234 10.1118C25.5178 8.83666 23.7752 8.80184 23.4434 8.81504C23.3877 8.81024 23.3332 8.80904 23.2811 8.79583C23.1237 8.75621 22.8573 8.62054 22.7761 8.48126C22.4467 7.92176 19.5779 6.79674 15.6192 8.38521C11.7066 9.95567 11.6981 13.3223 12.2055 16.408C12.3726 17.557 12.5555 18.55 12.5567 18.5548C12.6063 18.8249 12.4647 19.0938 12.214 19.2079C12.2176 19.2079 11.8035 19.4588 11.8035 20.4182C11.9391 22.1723 12.3278 22.3584 12.7032 22.5373C13.0532 22.7042 13.5836 22.9564 13.7519 23.8616C14.1007 25.7347 14.5584 26.3974 14.9266 26.9305C15.285 27.448 15.6217 27.9367 15.6217 29.0665C15.6217 32.5412 14.3005 34.2677 10.0923 35.9787Z" fill="black"/>
</svg>
