<svg width="45" height="47" viewBox="0 0 45 47" fill="none" xmlns="http://www.w3.org/2000/svg">
<ellipse cx="22.4442" cy="23.5" rx="22.0721" ry="23.5" fill="#979797"/>
<path d="M21.8614 24.9078C25.1703 24.9078 27.8542 22.0129 27.8542 18.444C27.8542 14.875 25.1703 12 21.8614 12C18.5525 12 15.8687 14.8948 15.8687 18.444C15.8687 21.9931 18.5525 24.9078 21.8614 24.9078ZM21.8614 13.6854C24.2879 13.6854 26.2733 15.8267 26.2733 18.444C26.2733 21.0613 24.2879 23.2026 21.8614 23.2026C19.4349 23.2026 17.4495 21.0612 17.4495 18.4439C17.4495 15.8267 19.4349 13.6854 21.8614 13.6854Z" fill="white" fill-opacity="0.78"/>
<path d="M11.4936 35.0002H32.3028C32.744 35.0002 33.0933 34.6234 33.0933 34.1476C33.0933 29.6864 29.7292 26.0381 25.5747 26.0381H18.2217C14.0855 26.0381 10.7031 29.6665 10.7031 34.1476C10.7031 34.6234 11.0524 35.0002 11.4936 35.0002ZM18.2217 27.7432H25.5747C28.5895 27.7432 31.0711 30.1622 31.4572 33.295H12.3392C12.7252 30.1821 15.2069 27.7432 18.2217 27.7432Z" fill="white" fill-opacity="0.78"/>
</svg>
