<svg width="45" height="47" viewBox="0 0 45 47" fill="none" xmlns="http://www.w3.org/2000/svg">
<ellipse cx="22.0721" cy="23.5" rx="22.0721" ry="23.5" fill="#979797"/>
<path d="M20.8477 27.3945C20.8659 26.3099 20.9889 25.4531 21.2168 24.8242C21.4447 24.1953 21.9095 23.498 22.6113 22.7324L24.4023 20.8867C25.168 20.0208 25.5508 19.0911 25.5508 18.0977C25.5508 17.1406 25.3001 16.3932 24.7988 15.8555C24.2975 15.3086 23.5684 15.0352 22.6113 15.0352C21.6816 15.0352 20.9342 15.2812 20.3691 15.7734C19.804 16.2656 19.5215 16.9264 19.5215 17.7559H16.9922C17.0104 16.2793 17.5345 15.0898 18.5645 14.1875C19.6035 13.276 20.9525 12.8203 22.6113 12.8203C24.334 12.8203 25.6738 13.2852 26.6309 14.2148C27.597 15.1354 28.0801 16.4023 28.0801 18.0156C28.0801 19.6107 27.3418 21.1829 25.8652 22.7324L24.375 24.209C23.7096 24.9473 23.377 26.0091 23.377 27.3945H20.8477ZM20.7383 31.7285C20.7383 31.3184 20.8613 30.9766 21.1074 30.7031C21.3626 30.4206 21.7363 30.2793 22.2285 30.2793C22.7207 30.2793 23.0944 30.4206 23.3496 30.7031C23.6048 30.9766 23.7324 31.3184 23.7324 31.7285C23.7324 32.1387 23.6048 32.4805 23.3496 32.7539C23.0944 33.0182 22.7207 33.1504 22.2285 33.1504C21.7363 33.1504 21.3626 33.0182 21.1074 32.7539C20.8613 32.4805 20.7383 32.1387 20.7383 31.7285Z" fill="white"/>
</svg>
