<svg width="45" height="47" viewBox="0 0 45 47" fill="none" xmlns="http://www.w3.org/2000/svg">
<ellipse cx="22.7577" cy="23.5" rx="22.0721" ry="23.5" fill="#979797"/>
<path d="M22.7043 12C18.3317 12 14.7744 15.7367 14.7744 20.3297C14.7744 26.0297 21.8708 34.3978 22.173 34.7512C22.4568 35.0832 22.9522 35.0826 23.2355 34.7512C23.5377 34.3978 30.6341 26.0297 30.6341 20.3297C30.634 15.7367 27.0767 12 22.7043 12ZM22.7043 24.5206C20.5043 24.5206 18.7146 22.6406 18.7146 20.3297C18.7146 18.0188 20.5044 16.1388 22.7043 16.1388C24.9041 16.1388 26.6939 18.0189 26.6939 20.3297C26.6939 22.6406 24.9041 24.5206 22.7043 24.5206Z" fill="white" fill-opacity="0.78"/>
</svg>
