<svg width="12" height="11" viewBox="0 0 12 11" fill="none" xmlns="http://www.w3.org/2000/svg">
<path d="M6.81482 0C3.95648 0 1.63209 2.46812 1.63209 5.5V5.51819L0.605831 3.87884C0.50541 3.71776 0.299668 3.67359 0.147811 3.78011C-0.00404584 3.88663 -0.045684 4.10487 0.0547375 4.26594L1.54392 6.64313C1.5978 6.72886 1.68353 6.78342 1.77905 6.79641C1.79374 6.79901 1.80599 6.79901 1.82069 6.79901C1.90151 6.79901 1.97989 6.76783 2.04112 6.70808L4.11079 4.73099C4.2455 4.60109 4.25775 4.38026 4.13528 4.23477C4.01281 4.09188 3.80462 4.07889 3.66746 4.20879L2.2934 5.52598V5.5C2.2934 2.85262 4.32143 0.701464 6.81482 0.701464C9.30821 0.701464 11.3387 2.85262 11.3387 5.5C11.3387 8.14738 9.31066 10.2985 6.81727 10.2985C5.60976 10.2985 4.47328 9.79972 3.62093 8.89301C3.49111 8.75531 3.28292 8.75531 3.15311 8.89301C3.0233 9.0307 3.0233 9.25154 3.15311 9.38923C4.13283 10.4284 5.43341 11 6.81727 11C9.67316 11 12 8.53448 12 5.5C12 2.46552 9.67316 0 6.81482 0Z" fill="#CCCCCC"/>
</svg>
